<?xml version="1.0" encoding="utf-8"?>
<!-- Generator: Adobe Illustrator 16.0.0, SVG Export Plug-In . SVG Version: 6.00 Build 0)  -->
<!DOCTYPE svg PUBLIC "-//W3C//DTD SVG 1.1//EN" "http://www.w3.org/Graphics/SVG/1.1/DTD/svg11.dtd">
<svg version="1.1" id="Layer_1" xmlns="http://www.w3.org/2000/svg" xmlns:xlink="http://www.w3.org/1999/xlink" x="0px" y="0px"
	 width="70px" height="100px" viewBox="0 0 70 100" enable-background="new 0 0 70 100" xml:space="preserve">
<path fill="#fff" d="M62.82,95.32c-1.45,0-5.271-0.44-7.82-1.46C52.45,92.85,31.61,59.7,28.97,57.09c-1.49-1.47-5.9-1.939-9.27-2.07
	C19.57,55.01,19.44,55,19.31,55H15.5l3.29-0.01C16.89,54.95,15.5,55,15.5,55H6c-1.1,0-2-0.9-2-2v-6c0-1.1,0.9-2,2-2h28.17
	c-0.02,0.01-0.03,0.02-0.05,0.03c-1.09,0.73-2.25,1.39-3.48,1.98c1.24-0.58,2.41-1.25,3.5-1.98c0.01-0.01,0.02-0.01,0.03-0.02
	c3.801-2.57,6.62-6.05,7.95-10.01H6c-1.1,0-2-0.9-2-2v-6c0-1.1,0.9-2,2-2h36.279c-1.18-3.91-3.809-7.37-7.399-10H6c-1.1,0-2-0.9-2-2
	V7c0-1.1,0.9-2,2-2h56c1.1,0,2,0.9,2,2v6c0,1.1-0.9,2-2,2H49c2.19,2.91,3.75,6.31,4.5,10H62c1.1,0,2,0.9,2,2v6c0,1.1-0.9,2-2,2h-8.5
	c-0.75,3.69-2.31,7.09-4.5,10c-0.14,0.18-0.28,0.37-0.43,0.55c-0.141,0.19-0.29,0.37-0.44,0.54c-0.01,0.02-0.02,0.03-0.03,0.05
	c-0.279,0.32-0.56,0.64-0.85,0.95c-0.06,0.07-0.13,0.14-0.2,0.21c-0.26,0.27-0.53,0.54-0.8,0.8c-0.03,0.03-0.07,0.06-0.1,0.09
	c-0.351,0.33-0.71,0.65-1.07,0.95c-0.1,0.1-0.22,0.19-0.33,0.28c-0.02,0.01-0.03,0.03-0.05,0.04c-0.05,0.05-0.11,0.09-0.17,0.14
	c-0.24,0.18-0.48,0.37-0.73,0.55c-0.22,0.16-0.44,0.32-0.67,0.47c-0.159,0.11-0.319,0.22-0.479,0.33
	c-0.11,0.069-0.23,0.14-0.34,0.22c-0.23,0.141-0.471,0.29-0.711,0.42c-0.89,0.53-1.82,0.99-2.77,1.4
	c-0.07-0.021-0.141-0.04-0.189-0.04c0.039,0.01,0.09,0.08,0.139,0.06L38.811,53l-0.031,0.04l-0.18,0.07l-0.51,0.18L38,53.32
	l-0.77,0.29c0.229,0.18,0.49,0.409,0.77,0.68c0.6,0.57,1.02,0.97,1.34,1.26c0.051,0.04,0.1,0.09,0.16,0.15
	c0.029,0.03,0.061,0.06,0.09,0.08c0.09,0.08,0.17,0.16,0.27,0.26c0.041,0.04,0.08,0.08,0.121,0.11c0.09,0.09,0.18,0.18,0.279,0.279
	c0.04,0.03,0.07,0.061,0.1,0.101c0.041,0.05,0.091,0.1,0.141,0.16c0.04,0.04,0.08,0.09,0.13,0.14c0.19,0.21,0.399,0.439,0.62,0.689
	c2,2.33,24.12,34.4,24.49,35.75C66.1,94.62,64.28,95.32,62.82,95.32z"/>
</svg>
